<?xml version="1.0" encoding="UTF-8"?>
<svg id="Layer_1" xmlns="http://www.w3.org/2000/svg" xmlns:xlink="http://www.w3.org/1999/xlink" viewBox="0 0 198 198">
  <defs>
    <style>
      .cls-1 {
        mask: url(#mask);
      }

      .cls-2 {
        fill: url(#radial-gradient-4);
      }

      .cls-3 {
        fill: url(#radial-gradient-3);
      }

      .cls-4 {
        fill: url(#radial-gradient-2);
      }

      .cls-5 {
        fill: #8b3cff;
      }

      .cls-6 {
        fill: url(#radial-gradient);
      }

      .cls-7, .cls-8 {
        fill: none;
        stroke: #fff;
        stroke-linejoin: round;
        stroke-width: 1.5px;
      }

      .cls-9 {
        filter: url(#luminosity-invert-noclip);
      }

      .cls-8 {
        stroke-linecap: round;
      }
    </style>
    <filter id="luminosity-invert-noclip" x="0" y="0" width="198" height="198" color-interpolation-filters="sRGB" filterUnits="userSpaceOnUse">
      <feColorMatrix result="cm" values="-1 0 0 0 1 0 -1 0 0 1 0 0 -1 0 1 0 0 0 1 0"/>
      <feFlood flood-color="#fff" result="bg"/>
      <feBlend in="cm" in2="bg"/>
    </filter>
    <mask id="mask" x="0" y="0" width="198" height="198" maskUnits="userSpaceOnUse">
      <g class="cls-9">
        <g>
          <rect class="cls-7" x="45" y="45" width="108" height="108"/>
          <line class="cls-8" x1="45" y1="45" x2="83.97" y2="22.5"/>
          <path class="cls-8" d="M153,45l38.97-22.5-38.97,22.5Z"/>
          <line class="cls-8" x1="45" y1="153" x2="83.96" y2="130.51"/>
          <line class="cls-8" x1="153" y1="153" x2="191.97" y2="130.5"/>
        </g>
      </g>
    </mask>
    <radialGradient id="radial-gradient" cx="45" cy="45" fx="45" fy="45" r="45" gradientUnits="userSpaceOnUse">
      <stop offset="0" stop-color="#8b3dff"/>
      <stop offset=".64" stop-color="#8b4afd" stop-opacity=".25"/>
      <stop offset=".82" stop-color="#8b4afd" stop-opacity=".1"/>
      <stop offset="1" stop-color="#8b4afd" stop-opacity="0"/>
    </radialGradient>
    <radialGradient id="radial-gradient-2" cx="153" cy="153" fx="153" fy="153" xlink:href="#radial-gradient"/>
    <radialGradient id="radial-gradient-3" cx="45" cy="153" fx="45" fy="153" xlink:href="#radial-gradient"/>
    <radialGradient id="radial-gradient-4" cx="153" cy="45" fx="153" fy="45" xlink:href="#radial-gradient"/>
  </defs>
  <g class="cls-1">
    <g>
      <circle class="cls-6" cx="45" cy="45" r="45"/>
      <circle class="cls-4" cx="153" cy="153" r="45"/>
      <circle class="cls-3" cx="45" cy="153" r="45"/>
      <circle class="cls-2" cx="153" cy="45" r="45"/>
    </g>
  </g>
  <g>
    <path class="cls-5" d="M58.73,106.9v-31.5h1.59l14.96,14.93,14.95-14.93h3.51v31.5h-7.02v-19.26l-12.29,12.29-12.19-12.29v19.26h-3.51Z"/>
    <path class="cls-5" d="M104.21,106.9v-31.5h7.01v31.5h-7.01Z"/>
    <path class="cls-5" d="M121.74,106.9v-31.5h6.99v27.99h10.5v3.51h-17.49Z"/>
  </g>
  <g>
    <path class="cls-5" d="M61.27,114.86h-1v-2.5c0-.14-.05-.25-.15-.35-.1-.1-.22-.15-.35-.15s-.26.05-.35.15c-.1.1-.15.22-.15.35v2.5h-1v-3.5h1v.5c.02-.17.07-.29.16-.38.08-.08.2-.12.35-.12h.5c.34,0,.59.12.75.35.08-.12.18-.21.3-.27s.27-.09.45-.09h.5c.27,0,.51.1.71.29.2.2.3.43.3.71v2.5h-1v-2.5c0-.14-.05-.25-.15-.35-.1-.1-.21-.15-.35-.15s-.26.05-.35.15c-.1.1-.15.22-.15.35v2.5Z"/>
    <path class="cls-5" d="M66.27,112.86v-.5c0-.14-.05-.25-.15-.35-.1-.1-.22-.15-.35-.15h-.5c-.3,0-.46.17-.5.5h-.5c.08-.67.41-1,1-1h1c.27,0,.51.1.7.3.2.2.29.43.29.71v2.5h-1v-.5c-.04.33-.21.5-.5.5h-.5c-.27,0-.51-.1-.7-.29-.2-.2-.29-.43-.29-.71h0c0-.28.1-.51.3-.71.2-.2.43-.29.7-.29h1ZM66.27,113.36h-.5c-.14,0-.26.05-.35.15-.1.1-.15.21-.15.35h0c0,.14.05.25.15.35s.22.15.35.15.26-.05.36-.15.15-.21.15-.35v-.5Z"/>
    <path class="cls-5" d="M68.77,110.36h1v1h.5v.5h-.5v2c0,.16.05.28.16.37.11.09.2.13.3.13h.05v.5h-.5c-.27,0-.51-.1-.71-.29-.2-.2-.29-.43-.29-.71v-2h-.5v-.5h.5v-1Z"/>
    <path class="cls-5" d="M74.26,113.36h-2v.5c0,.13.05.25.15.35s.22.15.35.15h.5c.33,0,.5-.17.5-.5h.5c-.08.67-.41,1-1,1h-1c-.27,0-.51-.1-.7-.29-.2-.2-.29-.43-.29-.71v-1.5c0-.28.1-.51.3-.71.2-.2.43-.29.7-.29h1c.27,0,.51.1.7.3.2.2.29.43.29.71v1ZM72.26,112.86h1v-.5c0-.14-.05-.25-.15-.35-.1-.1-.22-.15-.35-.15s-.26.05-.35.15c-.1.1-.15.22-.15.35v.5Z"/>
    <path class="cls-5" d="M76.26,114.86h-1v-3.5h1v1c.04-.33.14-.58.31-.75.17-.17.4-.25.69-.25h.5v1h-1c-.14,0-.26.05-.35.15-.1.1-.15.21-.15.35v2Z"/>
    <path class="cls-5" d="M78.26,110.86v-.5h1v.5h-1ZM78.26,114.86v-3.5h1v3.5h-1Z"/>
    <path class="cls-5" d="M82.27,112.86v-.5c0-.14-.05-.25-.15-.35-.1-.1-.22-.15-.35-.15h-.5c-.3,0-.46.17-.5.5h-.5c.08-.67.41-1,1-1h1c.27,0,.51.1.7.3.2.2.29.43.29.71v2.5h-1v-.5c-.04.33-.21.5-.5.5h-.5c-.27,0-.51-.1-.7-.29-.2-.2-.29-.43-.29-.71h0c0-.28.1-.51.3-.71.2-.2.43-.29.7-.29h1ZM82.27,113.36h-.5c-.14,0-.26.05-.35.15-.1.1-.15.21-.15.35h0c0,.14.05.25.15.35s.22.15.35.15.26-.05.36-.15.15-.21.15-.35v-.5Z"/>
    <path class="cls-5" d="M84.26,114.86v-4.5h1v4.5h-1Z"/>
    <path class="cls-5" d="M88.76,112.36h-.5c-.04-.33-.2-.5-.47-.5-.18,0-.31.03-.4.1-.09.07-.13.17-.13.31s.24.34.73.6c.4.21.62.39.68.53.06.14.09.29.09.45,0,.28-.1.52-.29.71-.2.2-.43.29-.7.29h-.5c-.67,0-1-.33-1-1h.5c.04.33.2.5.47.5.18,0,.31-.04.4-.11.09-.07.13-.17.13-.31s-.24-.34-.73-.6c-.4-.21-.63-.39-.69-.53s-.09-.29-.09-.45c0-.28.1-.52.3-.71.2-.2.43-.29.7-.29h.5c.62,0,.96.33,1,1Z"/>
    <path class="cls-5" d="M91.23,110.86v-.5h1v.5h-1ZM91.23,114.86v-3.5h1v3.5h-1Z"/>
    <path class="cls-5" d="M93.23,114.86v-3.5h1v.5c.02-.17.07-.29.16-.38.08-.08.2-.12.35-.12h.5c.27,0,.51.1.7.3.2.2.29.43.29.71v2.5h-1v-2.5c0-.14-.05-.25-.15-.35-.1-.1-.22-.15-.35-.15s-.26.05-.35.15c-.1.1-.15.22-.15.35v2.5h-1Z"/>
    <path class="cls-5" d="M97.73,114.86v-3h-.5v-.5h.5v-.04c0-.26.09-.49.28-.67s.41-.28.67-.28h1.04v.5h-.54c-.13,0-.23.04-.32.13s-.13.2-.13.32v.04h.5v.5h-.5v3h-1Z"/>
    <path class="cls-5" d="M101.23,111.36h1c.27,0,.51.1.7.3.2.2.29.43.29.71v1.5c0,.27-.1.5-.29.7-.2.2-.43.3-.7.3h-1c-.27,0-.51-.1-.7-.29s-.29-.43-.29-.71v-1.5c0-.28.1-.51.3-.71.2-.2.43-.29.7-.29ZM101.23,112.36v1.5c0,.13.05.25.15.35s.22.15.35.15.26-.05.36-.15.15-.21.15-.35v-1.5c0-.14-.05-.25-.15-.35-.1-.1-.22-.15-.35-.15s-.25.05-.35.15-.15.22-.15.35Z"/>
    <path class="cls-5" d="M105.23,114.86h-1v-3.5h1v1c.04-.33.14-.58.31-.75s.4-.25.69-.25h.5v1h-1c-.14,0-.26.05-.35.15-.1.1-.15.21-.15.35v2Z"/>
    <path class="cls-5" d="M110.23,114.86h-1v-2.5c0-.14-.05-.25-.15-.35s-.22-.15-.35-.15-.26.05-.35.15c-.1.1-.15.22-.15.35v2.5h-1v-3.5h1v.5c.02-.17.07-.29.16-.38.08-.08.2-.12.35-.12h.5c.34,0,.59.12.75.35.08-.12.18-.21.3-.27s.27-.09.45-.09h.5c.27,0,.51.1.71.29.2.2.3.43.3.71v2.5h-1v-2.5c0-.14-.05-.25-.15-.35-.1-.1-.21-.15-.35-.15s-.26.05-.35.15-.15.22-.15.35v2.5Z"/>
    <path class="cls-5" d="M115.23,112.86v-.5c0-.14-.05-.25-.15-.35s-.22-.15-.35-.15h-.5c-.29,0-.46.17-.5.5h-.5c.08-.67.41-1,1-1h1c.27,0,.51.1.7.3.2.2.29.43.29.71v2.5h-1v-.5c-.04.33-.21.5-.5.5h-.5c-.27,0-.51-.1-.7-.29-.2-.2-.29-.43-.29-.71h0c0-.28.1-.51.29-.71.2-.2.43-.29.7-.29h1ZM115.23,113.36h-.5c-.14,0-.26.05-.35.15-.1.1-.15.21-.15.35h0c0,.14.05.25.15.35s.22.15.36.15.26-.05.36-.15.15-.21.15-.35v-.5Z"/>
    <path class="cls-5" d="M117.73,110.36h1v1h.5v.5h-.5v2c0,.16.05.28.16.37.11.09.2.13.29.13h.05v.5h-.5c-.27,0-.51-.1-.71-.29-.2-.2-.29-.43-.29-.71v-2h-.5v-.5h.5v-1Z"/>
    <path class="cls-5" d="M120.23,110.86v-.5h1v.5h-1ZM120.23,114.86v-3.5h1v3.5h-1Z"/>
    <path class="cls-5" d="M124.73,112.36h-.5c-.04-.33-.21-.5-.5-.5-.14,0-.26.05-.35.15-.1.1-.15.22-.15.35v1.5c0,.13.05.25.15.35s.22.15.36.15c.29,0,.46-.17.5-.5h.5c-.04.67-.37,1-1,1h-.5c-.27,0-.51-.1-.7-.29-.2-.2-.29-.43-.29-.71v-1.5c0-.28.1-.51.29-.71.2-.2.43-.29.7-.29h.5c.63,0,.96.33,1,1Z"/>
    <path class="cls-5" d="M128.23,112.36h-.5c-.04-.33-.2-.5-.47-.5-.18,0-.31.03-.4.1-.09.07-.13.17-.13.31s.24.34.73.6c.4.21.62.39.68.53.06.14.09.29.09.45,0,.28-.1.52-.29.71-.2.2-.43.29-.71.29h-.5c-.67,0-1-.33-1-1h.5c.04.33.2.5.47.5.18,0,.31-.04.4-.11s.13-.17.13-.31-.24-.34-.73-.6c-.4-.21-.63-.39-.69-.53-.06-.14-.09-.29-.09-.45,0-.28.1-.52.3-.71.2-.2.43-.29.7-.29h.5c.62,0,.96.33,1,1Z"/>
    <path class="cls-5" d="M130.7,114.86v-4.5h1v4.5h-1Z"/>
    <path class="cls-5" d="M134.7,112.86v-.5c0-.14-.05-.25-.15-.35s-.22-.15-.35-.15h-.5c-.29,0-.46.17-.5.5h-.5c.08-.67.41-1,1-1h1c.27,0,.51.1.7.3.2.2.29.43.29.71v2.5h-1v-.5c-.04.33-.21.5-.5.5h-.5c-.27,0-.51-.1-.7-.29-.2-.2-.29-.43-.29-.71h0c0-.28.1-.51.29-.71.2-.2.43-.29.7-.29h1ZM134.7,113.36h-.5c-.14,0-.26.05-.35.15-.1.1-.15.21-.15.35h0c0,.14.05.25.15.35s.22.15.36.15.26-.05.36-.15.15-.21.15-.35v-.5Z"/>
    <path class="cls-5" d="M136.7,114.86v-4.5h1v1.5c.02-.17.07-.29.16-.38.08-.08.2-.12.35-.12h.5c.27,0,.51.1.7.3.2.2.29.43.29.71v1.5c0,.27-.1.5-.29.7-.2.2-.43.3-.7.3h-2ZM137.7,114.36h.5c.14,0,.26-.05.36-.15s.15-.21.15-.35v-1.5c0-.14-.05-.25-.15-.35-.1-.1-.22-.15-.35-.15s-.25.05-.35.15-.15.22-.15.35v2Z"/>
  </g>
</svg>